<svg xmlns="http://www.w3.org/2000/svg" xmlns:svg="http://www.w3.org/2000/svg" id="svg3028" width="16" height="16" version="1.1"><metadata id="metadata3033"/><g id="layer1"><rect style="fill:#ff8000;fill-opacity:1;stroke:#00f;stroke-width:0;stroke-linecap:round;stroke-linejoin:round;stroke-miterlimit:4;stroke-opacity:1;stroke-dasharray:none" id="rect3038" width="16" height="16" x="0" y="0" rx="2" ry="2"/><path style="fill:#fff;fill-opacity:1;stroke:#fff;stroke-width:0;stroke-linecap:round;stroke-linejoin:round;stroke-miterlimit:4;stroke-opacity:1;stroke-dasharray:none" id="path3814" d="m -2.5,7.5 a 2,2 0 1 1 -4,0 2,2 0 1 1 4,0 z" transform="matrix(0,1,-1,0,11.5,16.5)"/><path style="fill:none;stroke:#fff;stroke-width:1.89999996;stroke-linecap:round;stroke-linejoin:round;stroke-miterlimit:4;stroke-opacity:1;stroke-dasharray:none" id="path3847" d="m 18,7.5 a 9.5,9.5 0 1 1 -19,0 9.5,9.5 0 1 1 19,0 z" transform="matrix(1.0526316,0,0,1.0526316,-8.9473684,8.1052632)"/><path style="fill:none;stroke:#fff;stroke-width:.96362412;stroke-linecap:round;stroke-linejoin:round;stroke-miterlimit:4;stroke-opacity:1;stroke-dasharray:none" id="path3849" d="m 9,14.5 a 7,6.5 0 1 1 -14,0 7,6.5 0 1 1 14,0 z" transform="matrix(2,0,0,2.1538461,-3.9999999,-15.230768)"/><rect style="fill:none;fill-opacity:1;stroke:#ff8000;stroke-width:0;stroke-linecap:round;stroke-linejoin:round;stroke-miterlimit:4;stroke-opacity:1;stroke-dasharray:none" id="rect3869" width="15" height="15" x="2" y="-1" rx="0" ry="0"/><path style="fill:#ff8000;fill-opacity:1;stroke:none" id="rect3891" d="M 2 0 C 0.892 0 0 0.892 0 2 L 0 14 C 0 15.108 0.892 16 2 16 L 2 0 z"/><path style="fill:#ff8000;fill-opacity:1;stroke:none" id="rect3913" d="M 0 14 C 0 15.108 0.892 16 2 16 L 14 16 C 15.108 16 16 15.108 16 14 L 0 14 z"/></g></svg>