<svg xmlns="http://www.w3.org/2000/svg" xmlns:svg="http://www.w3.org/2000/svg" xmlns:xlink="http://www.w3.org/1999/xlink" id="svg2478" width="512" height="512" version="1.0" viewBox="0.5 25.1 512 512" xml:space="preserve"><metadata id="metadata4776"/><defs id="defs2480"><linearGradient id="linearGradient3251"><stop style="stop-color:#000;stop-opacity:1" id="stop3253" offset="0"/><stop style="stop-color:#000;stop-opacity:0" id="stop3255" offset="1"/></linearGradient><linearGradient id="linearGradient3591"><stop style="stop-color:#fff;stop-opacity:1" id="stop3593" offset="0"/><stop style="stop-color:#969696;stop-opacity:1" id="stop3595" offset="1"/></linearGradient><linearGradient id="linearGradient3423"><stop style="stop-color:#e7e7e8;stop-opacity:1" id="stop3425" offset="0"/><stop style="stop-color:#fff;stop-opacity:1" id="stop3427" offset="1"/></linearGradient><linearGradient id="linearGradient3411"><stop style="stop-color:#000;stop-opacity:1" id="stop3413" offset="0"/><stop style="stop-color:#000;stop-opacity:0" id="stop3415" offset="1"/></linearGradient><linearGradient id="linearGradient3399"><stop style="stop-color:#000;stop-opacity:.23529412" id="stop3401" offset="0"/><stop style="stop-color:#969696;stop-opacity:0" id="stop3403" offset="1"/></linearGradient><linearGradient id="linearGradient3385"><stop style="stop-color:#000;stop-opacity:1" id="stop3387" offset="0"/><stop style="stop-color:#000;stop-opacity:0" id="stop3389" offset="1"/></linearGradient><linearGradient id="linearGradient4966"><stop style="stop-color:#9d99cb;stop-opacity:1" id="stop4968" offset="0"/><stop style="stop-color:#b6b3d8;stop-opacity:0" id="stop4970" offset="1"/></linearGradient><radialGradient id="radialGradient4972" cx="299.701" cy="371.764" r="76.696" fx="299.701" fy="371.764" gradientTransform="matrix(0.6567567,0,0,0.4104729,184.64364,308.30559)" gradientUnits="userSpaceOnUse" xlink:href="#linearGradient4966"/><linearGradient id="linearGradient4898"><stop style="stop-color:#9693c8;stop-opacity:1" id="stop4900" offset="0"/><stop style="stop-color:#5955a9;stop-opacity:.99159664" id="stop4902" offset="1"/></linearGradient><radialGradient id="radialGradient4892" cx="20.952" cy="-108.969" r="266.765" fx="20.952" fy="-108.969" gradientTransform="matrix(0.2716588,0,0,0.2230142,373.70305,393.43878)" gradientUnits="userSpaceOnUse" xlink:href="#linearGradient4898"/><linearGradient id="linearGradient3391" x1="80.842" x2="198.413" y1="140.172" y2="71.767" gradientUnits="userSpaceOnUse" xlink:href="#linearGradient3385"/><radialGradient id="radialGradient3393" cx="91.433" cy="186.271" r="136" fx="91.433" fy="186.271" gradientTransform="matrix(1,0,0,1.0992647,0,-14.840074)" gradientUnits="userSpaceOnUse" xlink:href="#linearGradient3385"/><linearGradient id="linearGradient3405" x1="80.5" x2="229.866" y1="506" y2="357.598" gradientTransform="translate(-0.2692978,0.2692938)" gradientUnits="userSpaceOnUse" xlink:href="#linearGradient3399"/><linearGradient id="linearGradient3429" x1="262.182" x2="258.518" y1="86.314" y2="495.989" gradientUnits="userSpaceOnUse" xlink:href="#linearGradient3423"/><filter id="filter3567"><feGaussianBlur id="feGaussianBlur3569" stdDeviation="4.274"/></filter><linearGradient id="linearGradient3597" x1="368.369" x2="389.525" y1="115.665" y2="95.825" gradientUnits="userSpaceOnUse" xlink:href="#linearGradient3591"/><filter id="filter3715" width="1.768" height="1.768" x="-.384" y="-.384"><feGaussianBlur id="feGaussianBlur3717" stdDeviation="14.421"/></filter><filter id="filter3731"><feGaussianBlur id="feGaussianBlur3733" stdDeviation="4.397"/></filter><linearGradient id="linearGradient3257" x1="348.038" x2="394.196" y1="139.483" y2="83.419" gradientUnits="userSpaceOnUse" xlink:href="#linearGradient3251"/><filter id="filter4350" width="1.089" height="1.088" x="-.045" y="-.044" style="color-interpolation-filters:sRGB"><feGaussianBlur id="feGaussianBlur4352" stdDeviation="8.785"/></filter><linearGradient id="linearGradient4274" x1="-122.202" x2="236.614" y1="-161.851" y2="300.74" gradientTransform="matrix(0.38803836,0,0,0.36775507,375.02857,404.82819)" gradientUnits="userSpaceOnUse" spreadMethod="pad" xlink:href="#linearGradient4284"/><linearGradient id="linearGradient4284"><stop style="stop-color:#8381c5;stop-opacity:1" id="stop4286" offset="0"/><stop id="stop4290" offset=".566" style="stop-color:#7e55b3;stop-opacity:.99607843"/><stop style="stop-color:#a52ecb;stop-opacity:.99215686" id="stop4288" offset="1"/></linearGradient><linearGradient id="linearGradient4298" x1="447.809" x2="173.945" y1="396.607" y2="66.018" gradientTransform="matrix(0.43821233,0,0,0.43821233,267.13587,294.81153)" gradientUnits="userSpaceOnUse" xlink:href="#linearGradient4292"/><linearGradient id="linearGradient4292"><stop id="stop4294" offset="0" style="stop-color:#411f5d;stop-opacity:1"/><stop id="stop4296" offset="1" style="stop-color:#5b2a85;stop-opacity:1"/></linearGradient><filter id="filter4354" style="color-interpolation-filters:sRGB"><feGaussianBlur id="feGaussianBlur4356" stdDeviation="8.785"/></filter><filter id="filter4358" style="color-interpolation-filters:sRGB"><feGaussianBlur id="feGaussianBlur4360" stdDeviation="8.785"/></filter></defs><path style="fill:#0a0a0a;fill-opacity:.39215686;fill-rule:evenodd;stroke:#000;stroke-width:.42872402;stroke-linecap:butt;stroke-linejoin:miter;stroke-miterlimit:4;stroke-dasharray:none;stroke-opacity:1;filter:url(#filter3731)" id="path3431" d="M 65.840457,40.220841 L 65.840457,531.21586 L 454.73556,531.21586 C 454.73556,531.21586 454.82343,271.39779 454.73556,195.85859 C 454.7129,176.38596 452.52523,165.22182 440.52509,152.46728 C 385.21346,93.678448 362.19141,71.631941 340.14323,51.220087 C 333.95591,45.491962 327.07219,40.426681 305.47897,40.220841 C 275.14906,39.931738 168.81642,40.028182 65.840457,40.220841 z" transform="matrix(0.9551184,0,0,0.9693433,12.274847,2.7155996)"/><rect style="fill:none;stroke:#000;stroke-width:1.06089997;display:none" id="rect2482" width="512" height="512" x=".5" y="25.1"/><path style="opacity:1;fill:#646464;fill-opacity:.39215686;stroke:#7b0000;stroke-width:0;stroke-miterlimit:4;stroke-dasharray:none;stroke-opacity:1;filter:url(#filter3567)" id="path3503" d="M 505.48196,424.97062 C 505.48196,484.27809 457.88996,532.35629 399.18226,532.35629 C 340.47457,532.35629 292.88257,484.27809 292.88257,424.97062 C 292.88257,365.66316 340.47457,317.58496 399.18226,317.58496 C 457.88996,317.58496 505.48196,365.66316 505.48196,424.97062 z" transform="matrix(0.9609994,0,0,0.9613938,11.422588,12.260738)"/><path id="path4351" d="m 491.66937,257.75916 c 0,131.79436 -105.76,238.63481 -236.22155,238.63481 -130.46155,0 -236.221539,-106.84045 -236.221539,-238.63481 0,-131.79437 105.759989,-238.634808 236.221539,-238.634808 130.46155,0 236.22155,106.840438 236.22155,238.634808 z" transform="matrix(0.43821233,0,0,0.43821233,267.13588,294.81152)" style="opacity:.40500004;fill:#211f46;fill-opacity:.99607843;stroke:#0a0b1b;stroke-width:8.53333378;stroke-miterlimit:4;stroke-dasharray:none;stroke-opacity:1;filter:url(#filter4350)"/><path style="fill:url(#linearGradient3429);fill-opacity:1;fill-rule:evenodd;stroke:#000;stroke-width:.40000001;stroke-linecap:butt;stroke-linejoin:miter;stroke-miterlimit:4;stroke-dasharray:none;stroke-opacity:1" id="path3419" d="M 80.5,39.1 L 80.5,506 L 436.5,506 C 436.5,506 436.94688,264.06231 436.86644,192.2301 C 436.8457,173.71308 433.76569,159.25553 422.20901,147.67024 C 365.34657,90.667114 353.06631,78.680195 332.88312,59.270019 C 327.21916,53.82299 317.43656,40.028603 299.86845,39.1 C 272.10272,39.049948 174.76564,38.916782 80.5,39.1 z"/><path style="opacity:1;fill:url(#linearGradient4274);fill-opacity:1;stroke:url(#linearGradient4298);stroke-width:5.92283726;stroke-miterlimit:4;stroke-dasharray:none;stroke-opacity:1" id="path4864-6" d="m 482.59147,407.7648 c 0,57.75387 -46.34532,104.5727 -103.51517,104.5727 -57.16986,0 -103.51523,-46.81883 -103.51523,-104.5727 0,-57.75392 46.34537,-104.57271 103.51523,-104.57271 57.16985,0 103.51517,46.81879 103.51517,104.57271 z"/><rect style="opacity:1;fill:url(#linearGradient3405);fill-opacity:1;stroke:#000030;stroke-width:0;stroke-miterlimit:4;stroke-dasharray:none;stroke-opacity:1" id="rect3395" width="264.621" height="328.512" x="80.5" y="177.488"/><path style="fill:#fff;fill-opacity:1;fill-rule:evenodd;stroke:#000;stroke-width:0;stroke-linecap:butt;stroke-linejoin:miter;stroke-miterlimit:4;stroke-dasharray:none;stroke-opacity:1" id="path4839-2" d="m 340.11943,481.55867 c 0,0 8.7649,0.62002 20.04059,-0.37371 4.56637,-0.40261 21.90362,-2.1054 34.86557,-4.94804 0,0 15.80375,-3.38218 24.25859,-6.49798 8.84665,-3.26012 13.66064,-6.02712 15.82747,-9.9478 -0.0942,-0.80332 0.66719,-3.65208 -3.41254,-5.36325 -10.43022,-4.37477 -22.52676,-3.58349 -46.46283,-4.09096 -26.54416,-0.91202 -35.37438,-5.35515 -40.0781,-8.93361 -4.51067,-3.63019 -2.24252,-13.67348 17.0845,-22.52008 9.73556,-4.71093 47.9001,-13.40459 47.9001,-13.40459 -12.85311,-6.35314 -36.82016,-17.52178 -41.74684,-19.93359 -4.32097,-2.1152 -11.23586,-5.30015 -12.73474,-9.15353 -1.69943,-3.69934 4.01351,-6.886 7.20467,-7.79859 10.27747,-2.96451 24.78619,-4.80703 37.99075,-5.01388 6.63733,-0.1042 7.71471,-0.53101 7.71471,-0.53101 9.15822,-1.5192 15.18714,-7.78505 12.6753,-17.70827 -2.25507,-10.12902 -14.14832,-16.08074 -25.4503,-14.02029 -10.64318,1.94028 -36.29587,9.39173 -36.29587,9.39173 31.70866,-0.27424 37.01582,0.25483 39.38609,3.56871 1.39979,1.95715 -0.63607,4.64064 -9.09262,6.02177 -9.20653,1.50367 -28.34438,3.3144 -28.34438,3.3144 -18.35926,1.09036 -31.29151,1.1633 -35.17023,9.37535 -2.53396,5.36499 2.70225,10.10808 4.9973,13.077 9.69837,10.7856 23.70711,16.60256 32.72427,20.88621 3.39279,1.61175 13.34761,4.65546 13.34761,4.65546 -29.25333,-1.60891 -50.35562,7.37372 -62.73408,17.71603 -14.00039,12.94969 -7.80702,28.38536 20.87598,37.88949 16.94132,5.61352 25.34311,8.25358 50.61371,5.978 14.88457,-0.80233 17.23096,-0.32493 17.37936,0.89649 0.20888,1.71955 -16.53251,5.99098 -21.1031,7.30935 -11.62762,3.35395 -42.10833,10.12632 -42.26094,10.15919 z"/><path style="fill:#464646;fill-opacity:1;fill-rule:evenodd;stroke:#000;stroke-width:1px;stroke-linecap:butt;stroke-linejoin:miter;stroke-opacity:1;filter:url(#filter3715)" id="path3605" d="M 343.70805,92.437911 L 340.45142,163.9826 L 407.92401,146.89664 L 343.70805,92.437911 z"/><path style="fill:url(#linearGradient3597);fill-opacity:1;fill-rule:evenodd;stroke:url(#linearGradient3257);stroke-width:.40000001;stroke-linecap:butt;stroke-linejoin:miter;stroke-miterlimit:4;stroke-dasharray:none;stroke-opacity:1" id="path3587" d="M 345.72328,141.21214 C 369.54719,142.1578 408.63612,148.57658 423.38894,158.82173 C 429.63156,163.15694 437.02426,166.82736 436.86644,192.2301 C 436.05863,170.15935 433.76569,159.25553 422.20901,147.67024 C 365.34657,90.667114 353.06631,78.680195 332.88312,59.270019 C 316.59252,41.730605 308.6525,39.564301 299.86845,39.1 C 326.8119,41.20075 339.80786,67.674693 345.72328,141.21214 z"/></svg>